<svg width="1100" height="1329" xmlns="http://www.w3.org/2000/svg" xmlns:xlink="http://www.w3.org/1999/xlink" xml:space="preserve" overflow="hidden"><defs><clipPath id="clip0"><rect x="861" y="394" width="1100" height="1329"/></clipPath><linearGradient x1="1181.12" y1="1580.85" x2="1465.82" y2="1580.85" gradientUnits="userSpaceOnUse" spreadMethod="reflect" id="stroke1"><stop offset="0" stop-color="#F6F8FC" stop-opacity="1"/><stop offset="0.33" stop-color="#595959" stop-opacity="1"/><stop offset="0.64" stop-color="#FFFFFF" stop-opacity="1"/><stop offset="1" stop-color="#262626" stop-opacity="1"/></linearGradient><linearGradient x1="-6.875" y1="107.027" x2="168.902" y2="107.027" gradientUnits="userSpaceOnUse" spreadMethod="reflect" id="stroke2"><stop offset="0" stop-color="#F6F8FC" stop-opacity="1"/><stop offset="0.33" stop-color="#595959" stop-opacity="1"/><stop offset="0.64" stop-color="#FFFFFF" stop-opacity="1"/><stop offset="1" stop-color="#262626" stop-opacity="1"/></linearGradient><clipPath id="clip3"><path d="M1562.74 631.781 1715.02 435.385 1911.42 587.668 1759.13 784.064Z" fill-rule="nonzero" clip-rule="nonzero"/></clipPath><clipPath id="clip4"><path d="M1562.74 631.781 1715.02 435.385 1911.42 587.668 1759.13 784.064Z" fill-rule="evenodd" clip-rule="evenodd"/></clipPath><clipPath id="clip5"><path d="M1562.74 631.781 1715.02 435.385 1911.42 587.668 1759.13 784.064Z" fill-rule="evenodd" clip-rule="evenodd"/></clipPath><linearGradient x1="1181.12" y1="1074.32" x2="1194.88" y2="1074.32" gradientUnits="userSpaceOnUse" spreadMethod="reflect" id="stroke6"><stop offset="0" stop-color="#F6F8FC" stop-opacity="1"/><stop offset="0.33" stop-color="#595959" stop-opacity="1"/><stop offset="0.64" stop-color="#FFFFFF" stop-opacity="1"/><stop offset="1" stop-color="#262626" stop-opacity="1"/></linearGradient><linearGradient x1="1181.12" y1="450" x2="1741.9" y2="450" gradientUnits="userSpaceOnUse" spreadMethod="reflect" id="stroke7"><stop offset="0" stop-color="#F6F8FC" stop-opacity="1"/><stop offset="0.33" stop-color="#595959" stop-opacity="1"/><stop offset="0.64" stop-color="#FFFFFF" stop-opacity="1"/><stop offset="1" stop-color="#262626" stop-opacity="1"/></linearGradient><linearGradient x1="866.125" y1="1699" x2="1865.42" y2="1699" gradientUnits="userSpaceOnUse" spreadMethod="reflect" id="stroke8"><stop offset="0" stop-color="#F6F8FC" stop-opacity="1"/><stop offset="0.33" stop-color="#595959" stop-opacity="1"/><stop offset="0.64" stop-color="#FFFFFF" stop-opacity="1"/><stop offset="1" stop-color="#262626" stop-opacity="1"/></linearGradient><clipPath id="clip9"><rect x="1655" y="397" width="127" height="126"/></clipPath><clipPath id="clip10"><rect x="1655" y="397" width="127" height="126"/></clipPath><clipPath id="clip11"><rect x="1655" y="397" width="127" height="126"/></clipPath></defs><g clip-path="url(#clip0)" transform="translate(-861 -394)"><path d="M1637 727.5C1811.8 727.5 1953.5 929.643 1953.5 1179" stroke="#FFFFFF" stroke-width="14.8958" stroke-linecap="butt" stroke-linejoin="miter" stroke-miterlimit="8" stroke-opacity="0" fill="none" fill-rule="evenodd"/><path d="M1188 1448 1458.94 1713.69" stroke="url(#stroke1)" stroke-width="13.75" stroke-linecap="round" stroke-linejoin="miter" stroke-miterlimit="8" fill="none" fill-rule="evenodd"/><path d="M0 0 162.027 214.054" stroke="url(#stroke2)" stroke-width="13.75" stroke-linecap="round" stroke-linejoin="miter" stroke-miterlimit="8" fill="none" fill-rule="evenodd" transform="matrix(-1 0 0 1 1350.03 450)"/><g clip-path="url(#clip3)"><g clip-path="url(#clip4)"><g clip-path="url(#clip5)"><path d="M1726.16 689.288C1709.71 683.426 1697.93 668.837 1695.66 651.519 1693.33 632.826 1702.55 614.581 1718.99 605.381 1721.38 609.582 1724.25 613.499 1727.52 617.056 1730.46 620.095 1733.62 622.92 1736.96 625.509 1732.22 626.582 1728.01 629.274 1725.04 633.121 1722.17 636.811 1720.63 641.365 1720.69 646.039Z" fill="#D0CECE" fill-rule="nonzero" fill-opacity="1"/><path d="M1777.38 604.788C1777.04 604.468 1776.7 604.149 1776.33 603.849 1772.42 600.156 1768.33 596.893 1765.06 594.263 1762.7 592.452 1760.42 590.523 1758.25 588.484 1756.8 586.849 1755.58 585.022 1754.63 583.056 1751.83 571.819 1740.45 564.981 1729.21 567.781 1718.92 570.348 1712.16 580.202 1713.48 590.731 1713.84 593.274 1714.52 595.761 1715.49 598.139 1708.96 601.707 1703.24 606.588 1698.69 612.475 1698.02 613.343 1697.39 614.233 1696.78 615.131 1681.8 594.427 1686.44 565.502 1707.14 550.525 1727.85 535.548 1756.77 540.19 1771.75 560.894 1780.96 573.621 1783.08 590.149 1777.38 604.788Z" fill="#D0CECE" fill-rule="nonzero" fill-opacity="1"/><path d="M1778.13 673.989C1775.1 677.912 1771.45 681.322 1767.33 684.09L1761.87 640.903C1761.03 634.309 1750.7 626.022 1743.88 620.527 1740.23 617.748 1736.77 614.719 1733.54 611.463 1727.49 604.959 1722.37 595.594 1721.62 589.705 1720.75 582.713 1725.71 576.341 1732.7 575.473 1739.32 574.651 1745.45 579.059 1746.78 585.59 1748.11 588.707 1749.95 591.58 1752.22 594.092 1754.64 596.415 1757.19 598.597 1759.86 600.625 1763.08 603.22 1767.1 606.443 1770.89 610.018 1775.43 613.72 1779.21 618.252 1782.05 623.371L1782.56 624.28C1784.97 628.399 1786.55 632.959 1787.18 637.693 1787.21 637.948 1787.23 638.199 1787.25 638.455 1787.25 638.455 1787.44 639.667 1787.47 639.912 1789.03 652.062 1785.67 664.333 1778.13 673.989Z" fill="#D0CECE" fill-rule="nonzero" fill-opacity="1"/><path d="M1715.33 537.132C1718.72 535.91 1722.22 535.024 1725.78 534.486L1730.51 533.965C1733.64 533.72 1736.77 533.742 1739.89 534.031L1739.4 524.342C1737.78 509.78 1741.91 495.161 1750.91 483.601L1756.7 476.136 1737.14 460.97 1731.35 468.435C1718.8 484.563 1712.83 504.849 1714.65 525.204Z" fill="#D0CECE" fill-rule="nonzero" fill-opacity="1"/><path d="M1732.56 674.884 1734.53 693.828C1736.02 708.732 1731.63 723.632 1722.3 735.347L1716.3 742.911 1736.12 758.638 1742.12 751.077C1755.55 734.227 1761.86 712.797 1759.71 691.359L1757.7 671.984 1757.64 671.533 1753.97 642.803C1753.65 640.067 1752.19 637.593 1749.94 635.997L1749.11 635.41C1747.12 633.944 1744.76 633.072 1742.3 632.896 1735.3 632.497 1729.31 637.844 1728.91 644.839 1728.9 645.083 1728.89 645.327 1728.89 645.572L1728.89 646.294Z" fill="#D0CECE" fill-rule="nonzero" fill-opacity="1"/></g></g></g><path d="M1188 450 1188 1698.65" stroke="url(#stroke6)" stroke-width="13.75" stroke-linecap="round" stroke-linejoin="miter" stroke-miterlimit="8" fill="none" fill-rule="evenodd"/><path d="M1188 450 1735.03 450" stroke="url(#stroke7)" stroke-width="13.75" stroke-linecap="round" stroke-linejoin="miter" stroke-miterlimit="8" fill="none" fill-rule="evenodd"/><path d="M873 1699 1858.54 1699" stroke="url(#stroke8)" stroke-width="13.75" stroke-linecap="round" stroke-linejoin="miter" stroke-miterlimit="8" fill="none" fill-rule="evenodd"/><path d="M1772.32 769.733C1847.86 892.181 1835.09 1037.1 1743.8 1093.42" stroke="#FFFFFF" stroke-width="12.6042" stroke-linecap="butt" stroke-linejoin="miter" stroke-miterlimit="8" stroke-opacity="0" fill="none" fill-rule="evenodd"/><path d="M1596.38 964.1C1609.17 856.889 1697.25 779.248 1793.11 790.683" stroke="#FFFFFF" stroke-width="12.6042" stroke-linecap="butt" stroke-linejoin="miter" stroke-miterlimit="8" stroke-opacity="0" fill="none" fill-rule="evenodd"/><path d="M1810.81 1330.51C1788.24 1285.32 1848.89 1209.27 1946.26 1160.63" stroke="#FFFFFF" stroke-width="12.6042" stroke-linecap="butt" stroke-linejoin="miter" stroke-miterlimit="8" stroke-opacity="0" fill="none" fill-rule="evenodd"/><g clip-path="url(#clip9)"><g clip-path="url(#clip10)"><g clip-path="url(#clip11)"><path d="M62.5001 78.1251C53.9063 78.1251 46.875 71.0938 46.875 62.5001 46.875 53.9063 53.9063 46.875 62.5001 46.875 71.0938 46.875 78.1251 53.9063 78.1251 62.5001 78.1251 71.0938 71.0938 78.1251 62.5001 78.1251ZM97.6563 52.7344C96.8751 49.8698 95.7032 47.1355 94.2709 44.6615L97.5261 34.8959 90.1043 27.474 80.3386 30.7292C77.7345 29.2969 75.0001 28.125 72.1355 27.3438L67.7084 18.2292 57.2917 18.2292 52.7344 27.3438C49.8698 28.125 47.1355 29.2969 44.6615 30.7292L34.8959 27.474 27.474 34.8959 30.7292 44.6615C29.2969 47.2657 28.125 50.0001 27.3438 52.8646L18.2292 57.2917 18.2292 67.7084 27.3438 72.2657C28.125 75.1303 29.2969 77.8647 30.7292 80.3386L27.474 90.1043 34.8959 97.5261 44.6615 94.2709C47.2657 95.7032 50.0001 96.8751 52.8646 97.6563L57.4219 106.771 67.8386 106.771 72.3959 97.6563C75.2605 96.8751 77.9949 95.7032 80.4688 94.2709L90.2345 97.5261 97.6563 90.1043 94.4011 80.3386C95.8334 77.7345 97.0053 75.0001 97.7866 72.1355L106.901 67.5782 106.901 57.1615 97.6563 52.7344Z" fill="#AFABAB" fill-rule="nonzero" fill-opacity="1" transform="matrix(1.008 0 0 1 1656 397)"/></g></g></g></g></svg>