<svg width="2223" height="1765" xmlns="http://www.w3.org/2000/svg" xmlns:xlink="http://www.w3.org/1999/xlink" xml:space="preserve" overflow="hidden"><defs><clipPath id="clip0"><rect x="857" y="247" width="2223" height="1765"/></clipPath><clipPath id="clip1"><rect x="859" y="249" width="1938" height="1759"/></clipPath><clipPath id="clip2"><rect x="859" y="249" width="1938" height="1759"/></clipPath><clipPath id="clip3"><rect x="859" y="249" width="1938" height="1759"/></clipPath><clipPath id="clip4"><rect x="859" y="249" width="1938" height="1759"/></clipPath></defs><g clip-path="url(#clip0)" transform="translate(-857 -247)"><g clip-path="url(#clip1)"><g clip-path="url(#clip2)"><g clip-path="url(#clip3)"><g clip-path="url(#clip4)"><path d="M2845.83 3254.96 4128.7 3254.96" stroke="#FFFFFF" stroke-width="31.7416" stroke-linecap="butt" stroke-linejoin="miter" stroke-miterlimit="8" stroke-opacity="1" fill="none" fill-rule="evenodd" transform="matrix(1.0011 0 0 1 -1984.64 -1262.95)"/><path d="M0 0 0.000769028 1719.99" stroke="#FFFFFF" stroke-width="31.7416" stroke-linecap="butt" stroke-linejoin="miter" stroke-miterlimit="8" stroke-opacity="1" fill="none" fill-rule="evenodd" transform="matrix(1.0011 0 0 -1 1506.44 1990.23)"/><path d="M3470.19 1550.24 4753.06 1550.24" stroke="#FFFFFF" stroke-width="31.7416" stroke-linecap="butt" stroke-linejoin="miter" stroke-miterlimit="8" stroke-opacity="1" fill="none" fill-rule="evenodd" transform="matrix(1.0011 0 0 1 -1984.64 -1262.95)"/><path d="M4735.95 1550.24 4735.95 1946.18" stroke="#FFFFFF" stroke-width="31.7416" stroke-linecap="butt" stroke-linejoin="miter" stroke-miterlimit="8" stroke-opacity="1" fill="none" fill-rule="evenodd" transform="matrix(1.0011 0 0 1 -1984.64 -1262.95)"/></g></g></g></g><path d="M2555.5 792C2555.5 682.372 2644.37 593.5 2754 593.5 2863.63 593.5 2952.5 682.372 2952.5 792 2952.5 901.628 2863.63 990.5 2754 990.5 2644.37 990.5 2555.5 901.628 2555.5 792Z" stroke="#2F528F" stroke-width="4.58333" stroke-linecap="butt" stroke-linejoin="miter" stroke-miterlimit="8" stroke-opacity="1" fill="#FFFFFF" fill-rule="evenodd" fill-opacity="1"/><path d="M2754.5 990.5 2754.5 1574.69" stroke="#FFFFFF" stroke-width="25.2083" stroke-linecap="butt" stroke-linejoin="miter" stroke-miterlimit="8" stroke-opacity="1" fill="none" fill-rule="evenodd"/><path d="M0 0 290.695 124.08" stroke="#FFFFFF" stroke-width="25.2083" stroke-linecap="butt" stroke-linejoin="miter" stroke-miterlimit="8" stroke-opacity="1" fill="none" fill-rule="evenodd" transform="matrix(-1 0 0 1 3045.2 1067.5)"/><path d="M2754.04 1191.58 2436.5 1067.5" stroke="#FFFFFF" stroke-width="25.2083" stroke-linecap="butt" stroke-linejoin="miter" stroke-miterlimit="8" stroke-opacity="1" fill="none" fill-rule="evenodd"/><path d="M3071.12 1727.96 2754.5 1574.5" stroke="#FFFFFF" stroke-width="25.2083" stroke-linecap="butt" stroke-linejoin="miter" stroke-miterlimit="8" stroke-opacity="1" fill="none" fill-rule="evenodd"/></g></svg>